<svg width="330" height="199" viewBox="0 0 330 199" fill="none" xmlns="http://www.w3.org/2000/svg">
<path d="M327.797 75.8703L329.536 52.1082C157.515 138.6 0.645508 52.1082 0.645508 52.1082L2.35979 75.5954C15.0405 82.2759 164.36 157.105 327.797 75.8703Z" fill="#ECE3E1"/>
<path d="M8.30957 157.202L8.68772 162.443C8.68772 162.443 157.881 244.697 321.482 162.443L321.847 157.428C174.356 227.502 39.6331 172.116 8.30957 157.202Z" fill="#ECE3E1"/>
<path d="M5.97754 125.271L7.02376 139.538C35.8515 153.498 173.032 211.779 323.146 139.748L324.192 125.481C171.734 199.21 32.4103 138.26 5.97754 125.271Z" fill="#ECE3E1"/>
<path d="M3.64551 93.3079L4.69173 107.591C27.5699 119.06 169.843 183.827 325.477 107.801L326.524 93.5343C167.877 171.631 22.8808 103.127 3.64551 93.3079Z" fill="#ECE3E1"/>
<path d="M7.01074 139.538L8.29646 157.202C39.6326 172.116 174.343 227.502 321.847 157.412L323.133 139.732C173.019 211.779 35.8511 153.498 7.01074 139.538Z" fill="#ECE3E1"/>
<path d="M7.01074 139.538L8.29646 157.202C39.6326 172.116 174.343 227.502 321.847 157.412L323.133 139.732C173.019 211.779 35.8511 153.498 7.01074 139.538Z" fill="#ECE3E1"/>
<path d="M4.67871 107.591L5.96443 125.271C32.3972 138.26 171.721 199.21 324.166 125.481L325.452 107.801C169.83 183.827 27.5695 119.06 4.67871 107.591Z" fill="#ECE3E1"/>
<path d="M4.67871 107.591L5.96443 125.271C32.3972 138.26 171.721 199.21 324.166 125.481L325.452 107.801C169.83 183.827 27.5695 119.06 4.67871 107.591Z" fill="#ECE3E1"/>
<path d="M2.34766 75.5955L3.63337 93.3079C22.8687 103.127 167.864 171.631 326.499 93.5344L327.785 75.8543C164.36 157.105 15.0409 82.276 2.34766 75.5955Z" fill="#ECE3E1"/>
<path d="M2.34766 75.5955L3.63337 93.3079C22.8687 103.127 167.864 171.631 326.499 93.5344L327.785 75.8543C164.36 157.105 15.0409 82.276 2.34766 75.5955Z" fill="#ECE3E1"/>
<path d="M0.645508 54.2405C0.645508 54.2405 26.738 -7.72878 173.612 1.31347C320.486 10.3557 329.536 54.2405 329.536 54.2405C329.536 54.2405 159.658 158.817 0.645508 54.2405Z" fill="#F5E8E6"/>
</svg>
