<svg width="441" height="122" viewBox="0 0 441 122" fill="none" xmlns="http://www.w3.org/2000/svg">
<path d="M276.313 81.0772C276.938 79.9231 278.944 79.1927 281.054 79.3534L281.679 81.0626C282.669 83.6336 286.733 85.4743 291.422 85.4743C296.684 85.4743 301.035 83.1808 301.373 80.2299L301.452 79.6017C303.431 79.6017 305.281 80.1276 306.479 81.0187L310.543 84.0573V88.5128L307.834 91.0547C303.796 94.8383 308.642 99.6444 316.509 99.6444C324.793 99.6444 329.56 94.3854 324.715 90.631L323.907 90.0029C322.657 89.0387 321.979 87.8701 321.979 86.6722V85.3136C321.979 84.4809 322.292 83.6628 322.917 82.9178L326.538 78.5499C327.606 77.2644 333.103 76.0811 335.395 76.6362C337.115 77.0453 335.395 78.6084 335.395 79.6456V80.0692C335.395 85.3428 343.028 89.6231 352.432 89.6231C360.221 89.6231 367.021 86.6722 368.948 82.4357L371.215 77.4251C362.078 77.2498 369.026 67.1116 371.215 66.8194C374.81 66.3373 382.807 75.9204 383.094 77.9948L384.136 85.2844C384.344 86.8037 386.61 87.9723 389.32 87.9723C392.342 87.9723 394.738 86.5261 394.504 84.8315L393.488 77.4397C393.149 75.0877 394.999 72.8088 398.385 71.4064C401.485 70.1209 401.059 61.4435 404.55 62.3638C412.782 64.5259 440.045 53.9331 440.045 53.9331C440.045 53.9331 440.047 36.2506 440.047 27.5C440.047 14.5 438.248 0.75 438.248 0.75C350.635 27.75 326.538 34.75 256.748 54.5C172.945 42.5 57.611 24.75 1.99777 16.25L0.97522 30.4331V38.875C0.97522 45.875 9.60419 50.9547 9.05713 52.6201L12.3699 58.741C11.7968 60.5086 13.6724 62.2324 16.7203 62.7583C21.0447 63.5179 25.317 61.5604 24.9002 59.0477L24.3271 55.6294C23.9363 53.3505 28.5994 51.9335 31.8036 53.3505C32.4027 53.628 32.8716 53.9786 33.1842 54.3731L37.9254 60.6108C40.7909 64.3798 47.3817 66.8194 54.6758 66.8194C59.3649 66.8194 63.8977 65.7968 67.2842 63.9708L70.28 62.3638C73.406 60.6985 77.9649 60.1872 81.9767 61.0929C87.838 62.4077 90.5212 66.2058 87.864 69.4197L84.6338 73.3055C81.9506 76.5193 85.3892 80.3029 91.6153 80.9895C98.1018 81.6907 103.937 78.6814 103.208 75.0001L102.817 73.028C102.296 70.3254 108.131 68.7623 111.544 70.676C111.935 70.8951 112.273 71.1435 112.508 71.421L118.057 77.6442C119.307 79.0612 121.73 80.0546 124.517 80.3029L129.258 80.7266C131.915 80.9603 134.625 80.4928 136.604 79.4702C140.564 77.4105 146.999 78.2431 148.926 81.0772C149.525 81.9391 149.604 82.874 149.161 83.7651L139.991 102.172C136.735 108.731 145.54 115.232 157.679 115.232C168.438 115.232 176.878 110.075 175.967 104.071L172.945 84.0719C172.762 82.9909 173.309 81.9098 174.456 81.0479C177.712 78.5791 184.329 78.6522 187.403 81.194L188.601 82.1874C191.05 84.2326 195.166 85.4597 199.568 85.4597C202.72 85.4597 205.768 84.8315 208.165 83.6921L220.461 77.8341C223.925 76.1834 228.693 75.7305 232.913 76.6362C235.961 77.2936 238.409 78.6376 239.66 80.3322C240.65 81.6761 240.832 83.1662 240.181 84.5686L235.466 94.7068C233.851 98.1982 238.54 101.602 244.974 101.602C251.357 101.602 256.072 98.2274 254.509 94.7506L249.846 84.3202C249.377 83.2538 249.559 82.129 250.393 81.1356C251.982 79.2365 255.603 78.1555 259.302 78.4623L260.865 78.5937C264.251 78.8713 267.013 80.2737 267.846 82.1436L268.029 82.5818C268.315 83.1954 268.367 83.8381 268.185 84.4663L261.125 110.06C260.396 112.719 261.073 115.436 263.079 117.876C264.851 120.008 268.628 121.367 272.822 121.367H275.818C279.543 121.367 283.008 120.271 284.962 118.489C286.446 117.131 286.915 115.48 286.238 113.931L282.331 104.947L275.87 86.5991C275.219 84.7731 275.375 82.874 276.313 81.0772Z" fill="white"/>
</svg>
