<svg width="329" height="200" viewBox="0 0 329 200" fill="none" xmlns="http://www.w3.org/2000/svg">
<path d="M327.224 76.1067L328.964 52.3445C156.943 138.836 0.0732422 52.3445 0.0732422 52.3445L1.78752 75.8317C14.4682 82.5123 163.787 157.341 327.224 76.1067Z" fill="#F59DA4"/>
<path d="M7.7373 157.438L8.11545 162.679C8.11545 162.679 157.309 244.933 320.91 162.679L321.275 157.665C173.784 227.738 39.0608 172.352 7.7373 157.438Z" fill="#F59DA4"/>
<path d="M5.40527 125.507L6.45149 139.774C35.2792 153.734 172.46 212.015 322.573 139.985L323.62 125.718C171.162 199.447 31.8381 138.496 5.40527 125.507Z" fill="#F59DA4"/>
<path d="M3.07324 93.5442L4.11946 107.827C26.9976 119.296 169.271 184.064 324.905 108.038L325.951 93.7706C167.304 171.867 22.3085 103.363 3.07324 93.5442Z" fill="#F59DA4"/>
<path d="M6.43848 139.774L7.7242 157.438C39.0603 172.352 173.77 227.738 321.275 157.649L322.56 139.969C172.447 212.015 35.2788 153.734 6.43848 139.774Z" fill="#F59DA4"/>
<path d="M6.43848 139.774L7.7242 157.438C39.0603 172.352 173.77 227.738 321.275 157.649L322.56 139.969C172.447 212.015 35.2788 153.734 6.43848 139.774Z" fill="#F59DA4"/>
<path d="M4.10645 107.827L5.39216 125.507C31.8249 138.497 171.148 199.447 323.594 125.718L324.88 108.038C169.258 184.064 26.9972 119.296 4.10645 107.827Z" fill="#F59DA4"/>
<path d="M4.10645 107.827L5.39216 125.507C31.8249 138.497 171.148 199.447 323.594 125.718L324.88 108.038C169.258 184.064 26.9972 119.296 4.10645 107.827Z" fill="#F59DA4"/>
<path d="M1.77539 75.8318L3.06111 93.5442C22.2964 103.363 167.292 171.867 325.927 93.7707L327.212 76.0906C163.788 157.341 14.4687 82.5124 1.77539 75.8318Z" fill="#F59DA4"/>
<path d="M1.77539 75.8318L3.06111 93.5442C22.2964 103.363 167.292 171.867 325.927 93.7707L327.212 76.0906C163.788 157.341 14.4687 82.5124 1.77539 75.8318Z" fill="#F59DA4"/>
<path d="M0.0732422 54.4769C0.0732422 54.4769 26.1657 -7.49245 173.04 1.5498C319.914 10.592 328.964 54.4769 328.964 54.4769C328.964 54.4769 159.086 159.053 0.0732422 54.4769Z" fill="#F8ADB3"/>
</svg>
