<svg width="331" height="114" viewBox="0 0 331 114" fill="none" xmlns="http://www.w3.org/2000/svg">
<path d="M126.793 62.0266C126.312 60.5472 124.767 59.6097 123.141 59.8139L122.657 62.0037C121.891 65.2976 118.756 67.6531 115.143 67.6494C111.087 67.6453 107.738 64.7028 107.481 60.9211L107.421 60.1161C105.895 60.1146 104.469 60.787 103.545 61.928L100.409 65.8185L100.403 71.5282L102.488 74.7876C105.595 79.6392 101.854 85.7943 95.7911 85.7881C89.407 85.7816 85.74 79.0386 89.479 74.2314L90.1022 73.4271C91.0671 72.1925 91.5906 70.6955 91.5922 69.1604L91.5939 67.4195C91.595 66.3524 91.3552 65.3039 90.8743 64.3486L88.0895 58.7485C87.2681 57.1003 85.201 56.3681 83.4336 57.0777C82.1081 57.6005 81.2636 58.8164 81.2623 60.1455L81.2617 60.6884C81.2548 67.4463 75.367 72.9253 68.1196 72.9179C62.1169 72.9118 56.8809 69.125 55.4008 63.6946L53.6608 57.2719C53.2408 55.7177 51.917 54.4995 50.231 54.1234C47.4611 53.5028 44.7289 55.3346 44.5054 57.9926L43.6928 67.3331C43.5302 69.2798 41.7821 70.7756 39.6942 70.7735C37.3654 70.7711 35.5203 68.9159 35.7032 66.7446L36.4958 57.2731C36.7599 54.2594 35.3375 51.3376 32.7294 49.5378C30.3421 47.888 27.0907 47.0049 24.3993 48.1815C18.0525 50.9456 6.96493 56.4566 3.61659 52.2038C1.57149 49.6183 0.969016 13.4318 0.969016 13.4318L0.97763 5.00194L0.978891 0.962845C9.82173 9.49405 89.5052 48.6598 161.73 47.1237C243.839 45.3774 306.556 15.0133 329.685 0.71089L330.251 13.7683L330.249 15.9672C330.247 18.1387 327.755 20.8045 328.174 22.939L330.231 33.6115C330.671 35.8771 329.223 38.0846 326.873 38.7561C323.54 39.7262 320.25 37.2143 320.574 33.9948L321.02 29.6148C321.325 26.6947 317.733 24.8752 315.262 26.6885C314.799 27.0438 314.438 27.4927 314.196 27.9979L310.534 35.9876C308.321 40.8151 303.239 43.9362 297.617 43.9304C294.004 43.9267 290.512 42.6127 287.904 40.2701L285.598 38.2085C283.191 36.072 279.678 35.4132 276.585 36.5707C272.066 38.2508 269.994 43.1159 272.037 47.2364L274.521 52.2185C276.585 56.339 273.93 61.1848 269.131 62.0597C264.131 62.9532 259.638 59.0923 260.205 54.3754L260.509 51.8485C260.914 48.3857 256.419 46.3781 253.787 48.8277C253.485 49.1082 253.224 49.4262 253.043 49.7817L248.758 57.752C247.793 59.5669 245.925 60.838 243.776 61.154L240.122 61.6932C238.074 61.9906 235.986 61.3894 234.462 60.0774C231.413 57.4348 226.453 58.4968 224.964 62.1269C224.501 63.231 224.44 64.429 224.78 65.5712L231.822 89.1657C234.323 97.5736 227.529 105.897 218.174 105.887C209.882 105.879 203.384 99.2642 204.095 91.571L206.45 65.9456C206.592 64.5605 206.172 63.1748 205.29 62.0694C202.783 58.9031 197.684 58.9915 195.312 62.2464L194.387 63.5184C192.497 66.1373 189.323 67.7065 185.931 67.7031C183.501 67.7006 181.153 66.8932 179.308 65.4312L169.84 57.9148C167.172 55.7967 163.498 55.2126 160.245 56.3699C157.895 57.2099 156.006 58.9302 155.04 61.1008C154.276 62.8222 154.133 64.7315 154.633 66.5292L158.254 79.5246C159.494 83.9999 155.876 88.358 150.917 88.3529C145.998 88.3479 142.369 84.0199 143.578 79.5657L147.186 66.2033C147.548 64.8371 147.409 63.3955 146.768 62.1219C145.546 59.6871 142.757 58.2989 139.906 58.6891L138.701 58.8564C136.091 59.2094 133.961 61.0043 133.316 63.3999L133.175 63.9613C132.953 64.7473 132.912 65.5709 133.052 66.3761L138.459 99.1791C139.018 102.587 138.492 106.068 136.943 109.193C135.575 111.925 132.662 113.663 129.43 113.659L127.121 113.657C124.25 113.654 121.582 112.247 120.078 109.962C118.936 108.22 118.577 106.104 119.101 104.12L122.124 92.6104L127.127 69.1031C127.631 66.7637 127.513 64.3299 126.793 62.0266Z" fill="#3E210C"/>
</svg>
