<svg width="329" height="107" viewBox="0 0 329 107" fill="none" xmlns="http://www.w3.org/2000/svg">
<path d="M198.892 66.03C199.363 64.876 200.874 64.1456 202.463 64.3063L202.934 66.0154C203.68 68.5865 206.741 70.4272 210.273 70.4272C214.237 70.4272 217.514 68.1337 217.769 65.1828L217.828 64.5546C219.319 64.5546 220.712 65.0805 221.615 65.9716L224.676 69.0101V73.4657L222.635 76.0076C219.594 79.7911 223.243 84.5973 229.169 84.5973C235.409 84.5973 239 79.3383 235.351 75.5839L234.742 74.9558C233.8 73.9916 233.29 72.8229 233.29 71.6251V70.2665C233.29 69.4338 233.526 68.6157 233.997 67.8707L236.724 63.5028C237.529 62.2173 239.55 61.6475 241.276 62.2027C242.572 62.6117 243.396 63.5612 243.396 64.5984V65.0221C243.396 70.2957 249.145 74.576 256.229 74.576C262.096 74.576 267.217 71.6251 268.669 67.3886L270.377 62.378C270.789 61.1655 272.084 60.2159 273.732 59.9237C276.44 59.4417 279.109 60.8733 279.324 62.9477L280.109 70.2373C280.266 71.7565 281.973 72.9252 284.014 72.9252C286.29 72.9252 288.096 71.479 287.919 69.7844L287.154 62.3926C286.899 60.0406 288.292 57.7617 290.843 56.3593C293.178 55.0738 296.357 54.3872 298.986 55.3075C305.187 57.4695 320.446 48.8798 323.723 45.5637C325.725 43.5478 327.188 19.394 327.188 19.394L328.5 0.625C267.071 37.2408 190.951 48.4204 161.225 48.9236C82.0246 51.6116 20.7932 17.844 0.0774231 0.624268V28.209V29.9249C0.0774231 31.6194 2.51062 33.7017 2.09854 35.3671L0.0774231 43.6938C-0.354279 45.4615 1.0585 47.1852 3.35434 47.7111C6.61166 48.4708 9.82977 46.5133 9.51581 44.0006L9.08411 40.5823C8.78976 38.3033 12.3022 36.8863 14.7158 38.3034C15.1671 38.5809 15.5203 38.9315 15.7558 39.3259L19.327 45.5637C21.4855 49.3327 26.45 51.7723 31.9442 51.7723C35.4763 51.7723 38.8906 50.7497 41.4415 48.9236L43.6981 47.3167C46.0528 45.6514 49.4867 45.1401 52.5086 46.0458C56.9236 47.3605 58.9447 51.1587 56.9432 54.3726L54.5101 58.2584C52.489 61.4722 55.0791 65.2558 59.7688 65.9424C64.6548 66.6436 69.0503 63.6343 68.5008 59.953L68.2065 57.9808C67.8141 55.2783 72.2095 53.7152 74.78 55.6289C75.0744 55.848 75.3294 56.0964 75.506 56.3739L79.6857 62.5971C80.6275 64.0141 82.4524 65.0075 84.552 65.2558L88.1233 65.6795C90.1248 65.9132 92.1655 65.4457 93.6568 64.4231C96.6394 62.3633 101.486 63.196 102.938 66.03C103.39 66.8919 103.448 67.8269 103.115 68.718L96.2078 87.1245C93.755 93.6837 100.387 100.184 109.531 100.184C117.635 100.184 123.993 95.0277 123.306 89.0236L121.03 69.0248C120.893 67.9437 121.305 66.8627 122.168 66.0008C124.621 63.532 129.605 63.6051 131.921 66.1469L132.823 67.1403C134.668 69.1854 137.768 70.4126 141.084 70.4126C143.459 70.4126 145.754 69.7844 147.56 68.6449L156.821 62.787C159.431 61.1362 163.022 60.6834 166.201 61.5891C168.497 62.2465 170.341 63.5905 171.283 65.285C172.029 66.629 172.166 68.119 171.676 69.5215L168.124 79.6597C166.907 83.1511 170.439 86.5548 175.286 86.5548C180.094 86.5548 183.645 83.1803 182.468 79.7035L178.956 69.2731C178.602 68.2067 178.74 67.0819 179.368 66.0885C180.565 64.1894 183.292 63.1084 186.079 63.4152L187.256 63.5466C189.807 63.8242 191.887 65.2266 192.515 67.0965L192.652 67.5347C192.868 68.1483 192.907 68.791 192.77 69.4192L187.452 95.0131C186.903 97.6718 187.413 100.389 188.924 102.829C190.258 104.961 193.103 106.32 196.263 106.32H198.519C201.325 106.32 203.935 105.224 205.407 103.442C206.525 102.084 206.878 100.433 206.368 98.8843L203.425 89.9001L198.558 71.552C198.068 69.726 198.186 67.8269 198.892 66.03Z" fill="white"/>
</svg>
