<svg width="446" height="246" viewBox="0 0 446 246" fill="none" xmlns="http://www.w3.org/2000/svg">
<path d="M115.809 3.74859C123.12 1.23279 131.277 0.333368 139.285 1.16002L406.381 28.731C426.162 30.773 438.568 41.4712 441.627 53.4394L443.869 184.167L269.74 245.294L256.688 244.026L275.331 243.331L258.377 244.095L258.063 244.294L2.48828 194.463L4.40511 57.8459C5.9039 48.1623 13.586 38.9257 28.0163 33.96L115.809 3.74859Z" fill="#F59DA4"/>
<path d="M4.3877 76.0012L261.826 113.984L261.826 137.984L3.52336 99.12L4.3877 76.0012Z" fill="#F59DA4"/>
<path d="M441.764 60.0071L261.172 113.734L261.172 138.23L441.676 79.2844L441.764 60.0071Z" fill="#F59DA4"/>
<path d="M441.927 97.5708L259.061 152.629L259.061 176.234L441.877 116.851L441.927 97.5708Z" fill="#F59DA4"/>
<path d="M443.04 136.881L255.383 190.484L255.383 214.519L443.072 156.168L443.04 136.881Z" fill="#F59DA4"/>
<path d="M4.85254 114.052L260.103 152.326L259.206 176.317L3.9882 137.17L4.85254 114.052Z" fill="#F59DA4"/>
<path d="M2.9209 152L256.081 190.236L255.185 214.227L2.05713 175.119L2.9209 152Z" fill="#F59DA4"/>
<path d="M5.11035 57.0744C6.38286 51.7411 11.7496 40.0494 23.0362 35.9494C34.3228 31.8494 48.7631 26.8244 54.5724 24.8244L95.9014 10.4494C103.979 7.53274 120.699 1.69941 122.956 1.69941C125.778 1.69941 130.591 -1.42559 159.472 3.19941C184.435 5.79945 202.405 7.69946 208.27 8.32446L306.862 18.4495L408.94 28.9495C414.86 29.9911 428.426 34.0495 435.33 41.9495C435.945 42.6433 436.24 42.9122 436.344 42.9361C434.104 39.2352 436.755 43.0315 436.344 42.9361C436.701 43.5263 437.182 44.307 437.82 45.3245C437.82 45.3245 264.205 94.5745 256.57 94.5745C248.935 94.5745 5.11035 57.0744 5.11035 57.0744Z" fill="#F8ADB3"/>
</svg>
