<svg width="334" height="123" viewBox="0 0 334 123" fill="none" xmlns="http://www.w3.org/2000/svg">
<path d="M207.898 82.3941C208.369 81.24 209.88 80.5096 211.469 80.6703L211.94 82.3795C212.686 84.9505 215.747 86.7912 219.279 86.7912C223.242 86.7912 226.519 84.4977 226.774 81.5468L226.833 80.9186C228.325 80.9186 229.718 81.4445 230.62 82.3356L233.682 85.3742V89.8297L231.641 92.3716C228.599 96.1552 232.249 100.961 238.175 100.961C244.415 100.961 248.006 95.7023 244.356 91.9479L243.748 91.3198C242.806 90.3556 242.296 89.187 242.296 87.9891V86.6305C242.296 85.7978 242.531 84.9797 243.002 84.2347L245.73 79.8668C246.534 78.5813 250.675 77.398 252.401 77.9531C253.696 78.3622 252.401 79.9253 252.401 80.9624V81.3861C252.401 86.6597 258.151 90.94 265.234 90.94C271.102 90.94 276.223 87.9891 277.675 83.7526L279.382 78.742C272.5 78.5667 277.734 68.4285 279.382 68.1363C282.09 67.6542 288.114 77.2373 288.33 79.3117L289.115 86.6013C289.272 88.1206 290.979 89.2892 293.02 89.2892C295.296 89.2892 297.101 87.843 296.925 86.1484L296.159 78.7566C295.904 76.4046 297.298 74.1257 299.848 72.7233C302.183 71.4378 301.862 62.7604 304.492 63.6807C310.692 65.8428 331.229 55.25 331.229 55.25C331.229 55.25 332.777 40.6978 333.5 32C334.521 19.7089 331.229 0.5 331.229 0.5C265.234 27.5 248.25 34.25 195.084 54.6674C131.611 43.6674 42.7001 26.011 1.75 16L0.5 31.75L1.75 42.25C1.75 49.25 6.99976 52.2716 6.58768 53.937L9.08304 60.0579C8.65134 61.8255 10.0641 63.5493 12.36 64.0752C15.6173 64.8348 18.8354 62.8773 18.5214 60.3646L18.0897 56.9463C17.7954 54.6674 21.3078 53.2504 23.7214 54.6674C24.1727 54.9449 24.5259 55.2955 24.7614 55.69L28.3326 61.9277C30.4911 65.6967 35.4556 68.1363 40.9499 68.1363C44.4819 68.1363 47.8962 67.1137 50.4471 65.2877L52.7037 63.6807C55.0584 62.0154 58.4923 61.5041 61.5142 62.4098C65.9292 63.7246 67.9503 67.5227 65.9489 70.7366L63.5157 74.6224C61.4946 77.8362 64.0847 81.6198 68.7744 82.3064C73.6604 83.0076 78.0559 79.9983 77.5064 76.317L77.2121 74.3448C76.8197 71.6423 81.2151 70.0792 83.7857 71.9929C84.08 72.212 84.3351 72.4604 84.5117 72.7379L88.6913 78.9611C89.6332 80.3781 91.458 81.3715 93.5576 81.6198L97.1289 82.0435C99.1304 82.2772 101.171 81.8097 102.662 80.7871C105.645 78.7274 110.492 79.56 111.944 82.3941C112.395 83.256 112.454 84.1909 112.12 85.082L105.213 103.489C102.761 110.048 109.393 116.548 118.537 116.548C126.641 116.548 132.999 111.392 132.312 105.388L130.036 85.3888C129.898 84.3078 130.31 83.2267 131.174 82.3648C133.627 79.896 138.611 79.9691 140.926 82.5109L141.829 83.5043C143.673 85.5495 146.774 86.7766 150.09 86.7766C152.464 86.7766 154.76 86.1484 156.565 85.009L165.827 79.151C168.437 77.5003 172.028 77.0474 175.207 77.9531C177.502 78.6105 179.347 79.9545 180.289 81.649C181.035 82.993 181.172 84.4831 180.681 85.8855L177.13 96.0237C175.913 99.5151 179.445 102.919 184.292 102.919C189.099 102.919 192.651 99.5443 191.474 96.0675L187.961 85.6371C187.608 84.5707 187.745 83.4459 188.373 82.4525C189.57 80.5534 192.298 79.4724 195.084 79.7792L196.262 79.9106C198.812 80.1882 200.892 81.5906 201.52 83.4605L201.658 83.8987C201.874 84.5123 201.913 85.155 201.775 85.7832L196.458 111.377C195.908 114.036 196.419 116.753 197.929 119.193C199.264 121.325 202.109 122.684 205.268 122.684H207.525C210.331 122.684 212.941 121.588 214.412 119.806C215.531 118.448 215.884 116.797 215.374 115.248L212.43 106.264L207.564 87.916C207.073 86.09 207.191 84.1909 207.898 82.3941Z" fill="white"/>
</svg>
