<svg width="336" height="246" viewBox="0 0 336 246" fill="none" xmlns="http://www.w3.org/2000/svg">
<path d="M87.2134 3.51959C92.7192 1.00378 98.8622 0.104364 104.893 0.93102L306.044 28.502C320.941 30.544 330.284 41.2422 332.588 53.2104L334.277 183.938L203.139 245.065L193.309 243.797L207.35 243.102L194.582 243.866L194.345 244.065L1.87109 194.234L3.31466 57.6169C4.4434 47.9333 10.2288 38.6967 21.0963 33.731L87.2134 3.51959Z" fill="#ECE3E1"/>
<path d="M3.30176 75.772L197.179 113.755L197.179 137.755L2.65082 98.8907L3.30176 75.772Z" fill="#ECE3E1"/>
<path d="M332.692 59.7778L196.687 113.505L196.687 138L332.625 79.0551L332.692 59.7778Z" fill="#ECE3E1"/>
<path d="M332.814 97.3418L195.097 152.4L195.097 176.005L332.776 116.622L332.814 97.3418Z" fill="#ECE3E1"/>
<path d="M333.652 136.652L192.327 190.255L192.327 214.29L333.676 155.939L333.652 136.652Z" fill="#ECE3E1"/>
<path d="M3.65234 113.823L195.882 152.097L195.207 176.088L3.00141 136.942L3.65234 113.823Z" fill="#ECE3E1"/>
<path d="M2.19727 151.771L192.853 190.007L192.178 213.998L1.54676 174.89L2.19727 151.771Z" fill="#ECE3E1"/>
<path d="M3.8457 56.8454C4.80404 51.5121 8.8457 39.8204 17.3457 35.7204C25.8457 31.6204 36.7207 26.5954 41.0957 24.5954L72.2207 10.2204C78.304 7.30374 90.8957 1.4704 92.5957 1.4704C94.7207 1.4704 98.3457 -1.6546 120.096 2.9704C138.896 5.57045 152.429 7.47046 156.846 8.09546L231.096 18.2205L307.971 28.7205C312.429 29.7621 322.646 33.8205 327.846 41.7205C328.308 42.4143 328.531 42.6832 328.609 42.7071C326.922 39.0062 328.918 42.8025 328.609 42.7071C328.878 43.2973 329.24 44.078 329.721 45.0955C329.721 45.0955 198.971 94.3455 193.221 94.3455C187.471 94.3455 3.8457 56.8454 3.8457 56.8454Z" fill="#F5E8E6"/>
</svg>
