<svg width="446" height="246" viewBox="0 0 446 246" fill="none" xmlns="http://www.w3.org/2000/svg">
<path d="M115.486 3.69805C122.797 1.18225 130.954 0.282831 138.962 1.10949L406.057 28.6804C425.839 30.7224 438.245 41.4207 441.304 53.3889L443.546 184.117L269.417 245.243L256.364 243.976L275.008 243.281L258.054 244.044L257.74 244.244L2.16504 194.413L4.08187 57.7954C5.58065 48.1118 13.2628 38.8752 27.693 33.9094L115.486 3.69805Z" fill="#ECE3E1"/>
<path d="M4.06445 75.9507L261.503 113.934L261.503 137.934L3.20012 99.0694L4.06445 75.9507Z" fill="#ECE3E1"/>
<path d="M441.441 59.9565L260.848 113.684L260.848 138.179L441.352 79.2338L441.441 59.9565Z" fill="#ECE3E1"/>
<path d="M441.603 97.5202L258.738 152.578L258.738 176.184L441.554 116.801L441.603 97.5202Z" fill="#ECE3E1"/>
<path d="M442.717 136.831L255.06 190.434L255.06 214.469L442.749 156.118L442.717 136.831Z" fill="#ECE3E1"/>
<path d="M4.5293 114.001L259.78 152.275L258.883 176.266L3.66496 137.12L4.5293 114.001Z" fill="#ECE3E1"/>
<path d="M2.59766 151.95L255.758 190.185L254.862 214.176L1.73389 175.068L2.59766 151.95Z" fill="#ECE3E1"/>
<path d="M4.78711 57.0239C6.05962 51.6905 11.4263 39.9989 22.7129 35.8989C33.9996 31.7989 48.4398 26.7739 54.2491 24.7739L95.5782 10.3989C103.656 7.4822 120.376 1.64887 122.633 1.64887C125.455 1.64887 130.268 -1.47613 159.148 3.14887C184.112 5.74891 202.082 7.64893 207.947 8.27393L306.539 18.3989L408.616 28.8989C414.536 29.9406 428.102 33.9989 435.007 41.8989C435.621 42.5927 435.917 42.8617 436.02 42.8856C433.781 39.1846 436.431 42.981 436.02 42.8856C436.377 43.4757 436.859 44.2564 437.497 45.2739C437.497 45.2739 263.882 94.5239 256.247 94.5239C248.612 94.5239 4.78711 57.0239 4.78711 57.0239Z" fill="#F5E8E6"/>
</svg>
