<svg width="441" height="124" viewBox="0 0 441 124" fill="none" xmlns="http://www.w3.org/2000/svg">
<path d="M276.676 83.52C277.301 82.366 279.304 81.6356 281.411 81.7962L282.035 83.5054C283.024 86.0765 287.082 87.9172 291.764 87.9172C297.019 87.9172 301.363 85.6236 301.701 82.6728L301.779 82.0446C303.756 82.0446 305.603 82.5705 306.8 83.4616L310.858 86.5001V90.9557L308.153 93.4976C304.121 97.2811 308.959 102.087 316.815 102.087C325.088 102.087 329.848 96.8283 325.01 93.0739L324.203 92.4458C322.954 91.4816 322.278 90.3129 322.278 89.115V87.7565C322.278 86.9238 322.59 86.1057 323.215 85.3607L326.831 80.9928C327.897 79.7073 333.386 78.524 335.675 79.0791C337.392 79.4881 335.675 81.0512 335.675 82.0884V82.5121C335.675 87.7857 343.917 102.087 353.308 102.087C361.086 102.087 372.926 91.5108 374.851 87.2744V79.0791C369.181 73.1189 372.006 69.2623 371.444 69.2623C375.034 68.7802 383.02 78.3633 383.306 80.4377L384.347 87.7273C384.555 89.2465 386.818 90.4152 389.523 90.4152C392.541 90.4152 394.934 88.969 394.7 87.2744L393.686 79.8826C393.347 77.5306 395.194 75.2517 398.576 73.8493C401.672 72.5638 401.246 63.8864 404.732 64.8067C412.952 66.9688 437.988 57.6343 437.988 57.6343C437.988 57.6343 439.219 42.3321 440.177 33.6343C441.531 21.3432 436.828 0.634277 436.828 0.634277C346.68 27.2593 329.453 33.3843 257.526 53.6343C173.378 42.6343 9.79797 16.2593 0.00683594 16.2593V32.8843V43.6343C0.00683594 50.6343 10.3443 53.3976 9.79797 55.0629L13.1061 61.1838C12.5338 62.9514 14.4067 64.6752 17.4503 65.2011C21.7686 65.9608 26.0349 64.0032 25.6187 61.4906L25.0463 58.0722C24.6561 55.7933 29.3126 54.3763 32.5123 55.7933C33.1106 56.0709 33.5789 56.4215 33.891 56.8159L38.6255 63.0537C41.4869 66.8227 48.0684 69.2623 55.3522 69.2623C60.0347 69.2623 64.5611 68.2397 67.9428 66.4136L70.9344 64.8067C74.056 63.1414 78.6084 62.6301 82.6145 63.5358C88.4676 64.8505 91.1469 68.6487 88.4936 71.8625L85.2679 75.7484C82.5885 78.9622 86.0222 82.7458 92.2395 83.4324C98.7169 84.1336 104.544 81.1243 103.816 77.443L103.425 75.4708C102.905 72.7683 108.732 71.2052 112.14 73.1189C112.53 73.338 112.868 73.5863 113.102 73.8639L118.643 80.0871C119.892 81.5041 122.311 82.4974 125.095 82.7458L129.829 83.1694C132.483 83.4032 135.188 82.9357 137.165 81.9131C141.119 79.8533 147.545 80.686 149.47 83.52C150.068 84.3819 150.146 85.3169 149.704 86.208L140.201 97.1496C136.949 103.709 145.313 109.134 157.435 109.134C168.179 109.134 175.873 99.5016 174.963 93.4976L173.454 86.5148C173.272 85.4337 173.818 84.3527 174.963 83.4908C178.215 81.022 184.822 81.095 187.892 83.6369L189.088 84.6303C191.534 86.6754 195.644 87.9025 200.04 87.9025C203.188 87.9025 206.231 87.2744 208.625 86.1349L220.903 80.277C224.363 78.6262 229.123 78.1734 233.338 79.0791C236.381 79.7365 238.826 81.0805 240.075 82.775C241.064 84.119 238.622 87.6396 237.972 89.042L233.338 99.8843C231.725 103.376 238.175 114.634 244.6 114.634C250.974 114.634 256.464 100.67 254.903 97.1935L250.246 86.7631C250.793 87.9868 249.96 84.5718 250.793 83.5785C252.379 81.6794 255.995 80.5984 259.689 80.9052L261.25 81.0366C264.632 81.3142 267.389 82.7166 268.222 84.5864L268.404 85.0247C268.69 85.6383 268.742 86.281 268.56 86.9092L261.51 112.503C260.782 115.162 261.458 117.879 263.461 120.319C265.23 122.451 269.002 123.81 273.19 123.81H276.182C279.902 123.81 283.362 122.714 285.313 120.932C286.796 119.574 287.264 117.923 286.587 116.374V107.384L276.234 89.042C275.584 87.216 275.74 85.3169 276.676 83.52Z" fill="#3E210C"/>
</svg>
