<svg width="333" height="124" viewBox="0 0 333 124" fill="none" xmlns="http://www.w3.org/2000/svg">
<path d="M209.195 83.3858C209.666 82.2317 211.177 81.5013 212.767 81.662L213.238 83.3712C213.983 85.9422 217.044 87.7829 220.576 87.7829C224.54 87.7829 227.817 85.4894 228.072 82.5385L228.131 81.9103C229.622 81.9103 231.015 82.4362 231.918 83.3273L234.979 86.3659V90.8214L232.938 93.3633C229.897 97.1469 233.547 101.953 239.473 101.953C245.713 101.953 249.304 96.694 245.654 92.9396L245.046 92.3115C244.104 91.3473 243.593 90.1786 243.593 88.9808V87.6222C243.593 86.7895 243.829 85.9714 244.3 85.2264L247.027 80.8585C247.832 79.573 251.972 78.3897 253.699 78.9448C254.994 79.3539 253.699 80.917 253.699 81.9541V82.3778C253.699 87.6514 259.916 101.953 267 101.953C272.867 101.953 281.798 91.3765 283.25 87.1401V78.9448C278.973 72.9846 281.104 69.128 280.68 69.128C283.388 68.6459 289.412 78.229 289.628 80.3034L290.413 87.593C290.57 89.1123 292.277 90.2809 294.317 90.2809C296.594 90.2809 298.399 88.8347 298.222 87.1401L297.457 79.7483C297.202 77.3963 298.595 75.1174 301.146 73.715C303.481 72.4295 303.16 63.7521 305.789 64.6724C311.99 66.8345 330.875 57.5 330.875 57.5C330.875 57.5 331.803 42.1978 332.526 33.5C333.548 21.2089 330 0.5 330 0.5C262 27.125 249.006 33.25 194.75 53.5C131.276 42.5 7.88535 16.125 0.499756 16.125V32.75V43.5C0.499756 50.5 8.29742 53.2633 7.88535 54.9286L10.3807 61.0496C9.94901 62.8172 11.3618 64.541 13.6576 65.0669C16.9149 65.8265 20.1331 63.869 19.8191 61.3563L19.3874 57.938C19.093 55.6591 22.6055 54.2421 25.0191 55.6591C25.4704 55.9366 25.8236 56.2872 26.0591 56.6817L29.6303 62.9194C31.7888 66.6884 36.7532 69.128 42.2475 69.128C45.7796 69.128 49.1939 68.1054 51.7448 66.2794L54.0014 64.6724C56.3561 63.0071 59.79 62.4958 62.8119 63.4015C67.2269 64.7163 69.248 68.5144 67.2465 71.7283L64.8134 75.6141C62.7922 78.8279 65.3824 82.6115 70.0721 83.2981C74.9581 83.9993 79.3535 80.99 78.8041 77.3087L78.5098 75.3365C78.1173 72.634 82.5128 71.0709 85.0833 72.9846C85.3777 73.2037 85.6327 73.4521 85.8093 73.7296L89.989 79.9528C90.9308 81.3698 92.7557 82.3632 94.8553 82.6115L98.4266 83.0352C100.428 83.2689 102.469 82.8014 103.96 81.7788C106.943 79.7191 111.789 80.5517 113.242 83.3858C113.693 84.2477 113.752 85.1826 113.418 86.0737L106.25 97.0154C103.797 103.575 110.106 109 119.25 109C127.354 109 133.158 99.3673 132.472 93.3633L131.333 86.3805C131.196 85.2995 131.608 84.2184 132.472 83.3565C134.924 80.8877 139.908 80.9608 142.224 83.5026L143.127 84.496C144.971 86.5412 148.071 87.7683 151.388 87.7683C153.762 87.7683 156.058 87.1401 157.863 86.0007L167.125 80.1427C169.735 78.492 173.325 78.0391 176.504 78.9448C178.8 79.6022 180.645 80.9462 181.587 82.6407C182.332 83.9847 180.491 87.5053 180 88.9077L176.504 99.75C175.288 103.241 180.153 114.5 185 114.5C189.807 114.5 193.949 100.536 192.771 97.0592L189.259 86.6288C189.671 87.8525 189.043 84.4376 189.671 83.4442C190.868 81.5451 193.595 80.4641 196.382 80.7709L197.559 80.9023C200.11 81.1799 202.19 82.5823 202.818 84.4522L202.955 84.8904C203.171 85.504 203.21 86.1467 203.073 86.7749L197.755 112.369C197.206 115.028 197.716 117.745 199.227 120.184C200.561 122.317 203.407 123.676 206.566 123.676H208.823C211.629 123.676 214.238 122.58 215.71 120.798C216.828 119.439 217.182 117.788 216.671 116.24V107.25L208.862 88.9077C208.371 87.0817 208.489 85.1826 209.195 83.3858Z" fill="#3E210C"/>
</svg>
