<svg width="337" height="246" viewBox="0 0 337 246" fill="none" xmlns="http://www.w3.org/2000/svg">
<path d="M87.5366 3.57012C93.0424 1.05432 99.1854 0.154901 105.216 0.981557L306.367 28.5525C321.265 30.5945 330.607 41.2927 332.911 53.2609L334.6 183.989L203.462 245.116L193.632 243.848L207.673 243.153L194.905 243.917L194.668 244.116L2.19434 194.285L3.63791 57.6674C4.76664 47.9839 10.5521 38.7473 21.4195 33.7815L87.5366 3.57012Z" fill="#F59DA4"/>
<path d="M3.625 75.8228L197.503 113.806L197.503 137.806L2.97407 98.9415L3.625 75.8228Z" fill="#F59DA4"/>
<path d="M333.015 59.8286L197.01 113.556L197.01 138.051L332.948 79.1059L333.015 59.8286Z" fill="#F59DA4"/>
<path d="M333.137 97.3923L195.421 152.45L195.421 176.056L333.1 116.673L333.137 97.3923Z" fill="#F59DA4"/>
<path d="M333.975 136.703L192.65 190.306L192.65 214.341L333.999 155.99L333.975 136.703Z" fill="#F59DA4"/>
<path d="M3.97559 113.873L196.205 152.147L195.53 176.138L3.32465 136.992L3.97559 113.873Z" fill="#F59DA4"/>
<path d="M2.52051 151.822L193.176 190.057L192.501 214.048L1.87 174.941L2.52051 151.822Z" fill="#F59DA4"/>
<path d="M4.16895 56.8959C5.12728 51.5626 9.16895 39.8709 17.6689 35.7709C26.1689 31.6709 37.0439 26.6459 41.4189 24.6459L72.5439 10.2709C78.6273 7.35427 91.2189 1.52094 92.9189 1.52094C95.0439 1.52094 98.6689 -1.60406 120.419 3.02094C139.219 5.62099 152.752 7.521 157.169 8.146L231.419 18.271L308.294 28.771C312.752 29.8127 322.969 33.871 328.169 41.771C328.632 42.4648 328.854 42.7337 328.932 42.7577C327.245 39.0567 329.241 42.853 328.932 42.7577C329.201 43.3478 329.563 44.1285 330.044 45.146C330.044 45.146 199.294 94.396 193.544 94.396C187.794 94.396 4.16895 56.8959 4.16895 56.8959Z" fill="#F8ADB3"/>
</svg>
