<svg width="330" height="200" viewBox="0 0 330 200" fill="none" xmlns="http://www.w3.org/2000/svg">
<path d="M327.911 75.8824L329.65 52.1203C157.629 138.612 0.759766 52.1203 0.759766 52.1203L2.47405 75.6075C15.1547 82.288 164.474 157.117 327.911 75.8824Z" fill="#290F0C"/>
<path d="M8.42383 157.214L8.80197 162.455C8.80197 162.455 157.995 244.709 321.596 162.455L321.962 157.441C174.47 227.514 39.7474 172.128 8.42383 157.214Z" fill="#290F0C"/>
<path d="M6.0918 125.283L7.13801 139.55C35.9658 153.51 173.146 211.791 323.26 139.76L324.306 125.493C171.848 199.223 32.5246 138.272 6.0918 125.283Z" fill="#290F0C"/>
<path d="M3.75977 93.3199L4.80599 107.603C27.6841 119.072 169.957 183.839 325.592 107.813L326.638 93.5464C167.991 171.643 22.9951 103.139 3.75977 93.3199Z" fill="#290F0C"/>
<path d="M7.125 139.55L8.41072 157.214C39.7469 172.128 174.457 227.514 321.961 157.424L323.247 139.744C173.133 211.791 35.9653 153.51 7.125 139.55Z" fill="#82441F"/>
<path d="M7.125 139.55L8.41072 157.214C39.7469 172.128 174.457 227.514 321.961 157.424L323.247 139.744C173.133 211.791 35.9653 153.51 7.125 139.55Z" fill="#DBAE76"/>
<path d="M4.79297 107.603L6.07868 125.283C32.5115 138.272 171.835 199.222 324.28 125.493L325.566 107.813C169.944 183.839 27.6837 119.072 4.79297 107.603Z" fill="#82441F"/>
<path d="M4.79297 107.603L6.07868 125.283C32.5115 138.272 171.835 199.222 324.28 125.493L325.566 107.813C169.944 183.839 27.6837 119.072 4.79297 107.603Z" fill="#DBAE76"/>
<path d="M2.46191 75.6075L3.74763 93.32C22.9829 103.139 167.979 171.643 326.613 93.5464L327.899 75.8663C164.475 157.117 15.1552 82.2881 2.46191 75.6075Z" fill="#82441F"/>
<path d="M2.46191 75.6075L3.74763 93.32C22.9829 103.139 167.979 171.643 326.613 93.5464L327.899 75.8663C164.475 157.117 15.1552 82.2881 2.46191 75.6075Z" fill="#DBAE76"/>
<path d="M0.759766 54.2527C0.759766 54.2527 26.8522 -7.71663 173.726 1.32561C320.6 10.3679 329.651 54.2527 329.651 54.2527C329.651 54.2527 159.772 158.829 0.759766 54.2527Z" fill="#391915"/>
</svg>
