<?xml version="1.0" encoding="utf-8"?>
<!-- Generator: Adobe Illustrator 22.0.1, SVG Export Plug-In . SVG Version: 6.00 Build 0)  -->
<svg version="1.1" id="Слой_1" xmlns="http://www.w3.org/2000/svg" xmlns:xlink="http://www.w3.org/1999/xlink" x="0px" y="0px"
	 viewBox="0 0 80.2 95.8" style="enable-background:new 0 0 80.2 95.8;" xml:space="preserve">
<style type="text/css">
	
		.st0{clip-path:url(#SVGID_2_);fill:none;stroke:#D1D1D1;stroke-width:0.75;stroke-linecap:round;stroke-linejoin:round;stroke-miterlimit:10;}
</style>
<g>
	<defs>
		<rect id="SVGID_1_" y="0" width="80.2" height="95.8"/>
	</defs>
	<clipPath id="SVGID_2_">
		<use xlink:href="#SVGID_1_"  style="overflow:visible;"/>
	</clipPath>
	<path class="st0" d="M17.3,88.7c3.8,1.2,8.3,2.1,13.8,2.3"/>
	<line class="st0" x1="34.4" y1="90.9" x2="41.2" y2="90.8"/>
	<path class="st0" d="M43.3,5.2C51.2,5.6,57,7.3,57,9.3"/>
	<path class="st0" d="M20.9,9.3c0-1.7,4.2-3.1,10.2-3.8"/>
	<path class="st0" d="M23.8,34.9c4.9,2.4,16.9,6.5,34.2-0.4c0,0,0.3-1.8,0.2-3.3c-0.2-1.5,0.7-17.8-0.8-22.3"/>
	<path class="st0" d="M20.9,9.3c0,0,0.2,10.2,0.3,17.5"/>
	<path class="st0" d="M27.2,31.8c6,2.1,16.5,3.7,30.5-1.5"/>
	<path class="st0" d="M64.7,60.9c2.8-1.8,4.9-4.3,4.1-7.3c0-0.1-0.1-0.2-0.1-0.3c-2.5-7.8,1-16,0.4-17.8c-0.6-1.8-3.2-5.7-10.8-8.2"
		/>
	<path class="st0" d="M21.1,27.4c0,0-9.5,0-11.2,8.7c0,0,1.3,18.4,1.2,20.7C11,59,10.6,59.4,13.3,61c2.6,1.5,10.5,9.3,37.3,4.8"/>
	<path class="st0" d="M11.1,37.3c0,0,2.3,1.8,4.2,2.2"/>
	<path class="st0" d="M17.1,40.5c0,0,7.8,2.4,15.7,2.9"/>
	<path class="st0" d="M39.2,43.6c0,0,13.1,0.4,21-3.3"/>
	<path class="st0" d="M67.8,36.8c0,0-3.8,2.8-5.4,2.8"/>
	<path class="st0" d="M37.8,43.5c0,0-2.6,0.3-3.8-0.2"/>
	<path class="st0" d="M22.2,9.8c0,0,1.3,1.8,8,2.3"/>
	<path class="st0" d="M33.2,12.3c0,0,8.6,0.7,14.8-0.2"/>
	<path class="st0" d="M51.2,11.7c0,0,2.1-0.6,4.3-1.8"/>
	<path class="st0" d="M10.7,54.9c0,0,7.2,11.8,39.3,6.8"/>
	<path class="st0" d="M63.2,56.8c0.4-0.2,2.6-1.4,5.5-3.5"/>
	<path class="st0" d="M78.1,74.8c0.6-5,0.8-13.6,1-16.2c0.2-2.6-1.3-9.8-11.3-12"/>
	<path class="st0" d="M18.7,93.2c5.8,1.6,13.6,2.6,24.3,2.1c10.4-0.5,17.7-2.3,22.8-4.7"/>
	<path class="st0" d="M10.5,45.7c0,0-10.2,5.3-10.2,13.3c0,0,0.6,11.6,0.5,12.8C0.8,73.1-0.5,79.8,2,82.4c0.4,0.4,0.9,1.1,1.7,2"/>
	<path class="st0" d="M0.4,59c0,0,5.6,10,16.2,12.2"/>
	<path class="st0" d="M22.1,71.7c0,0,15.2,3,26.8,0.8"/>
	<path class="st0" d="M53.8,71.2c0,0,9.3-1.7,15-4.3"/>
	<path class="st0" d="M72.3,64.5c0,0,6.5-5.5,6.5-8.7"/>
	<path class="st0" d="M0.5,75.8c0,0,1.1,2.6,4.3,5.6"/>
	<path class="st0" d="M44.9,90.8c0,0,11.3,0,17.8-4"/>
	<path class="st0" d="M62.4,62.9c-0.4-0.2-0.8-0.3-1.3-0.3c-0.9,0-1.8,0.2-2.6,0.1c-1.1-0.1-2-0.9-2.9-1.6c0.8,0.6,0.8,1.7,1.2,2.5
		c0.3,0.8,1.1,1.5,1.9,1.5c0.6,0.1,1.3-0.2,1.9-0.4c0.3-0.1,0.6-0.3,0.9-0.5c0.3-0.3,0.6-0.6,0.7-1"/>
	<path class="st0" d="M60.6,62.4c0-0.5,0.1-1.1,0.1-1.6c0-0.4,0.1-0.7-0.1-1.1c-0.1-0.2-0.3-0.4-0.5-0.6c-0.3-0.3-0.6-0.5-1-0.6
		c-0.4-0.1-0.8,0.1-1,0.4c-0.1,0.2-0.1,0.6,0,0.8c0.1,0.3,0.3,0.5,0.6,0.6c0.2,0.1,0.3,0.2,0.5,0.3c0.2,0,0.4,0,0.5-0.2
		c0.1-0.2,0.1-0.5-0.1-0.7c-0.1-0.2-0.4-0.3-0.6-0.4"/>
	<path class="st0" d="M56.2,61.5c-0.2-0.6,0.1-1.2,0.5-1.7c0.2-0.3,0.3-0.5,0.6-0.8c0.4-0.3,0.9-0.5,1.4-0.4"/>
	<path class="st0" d="M62,62.5c0.9-0.4,1.3-1.4,1.5-2.3c0.1-0.4,0.1-0.7,0-1.1c-0.2-0.5-0.6-0.9-1-1.3c-0.4-0.4-0.9-0.8-1.5-0.7
		c-0.7,0.1-1.1,0.7-1.4,1.2"/>
	<path class="st0" d="M60.7,57.1c-0.4-0.5-1.1-0.6-1.8-0.6c-0.7,0-1.3,0.1-1.9-0.1c0,0-0.1,0-0.1,0c0,0,0,0.1-0.1,0.1
		c-0.4,1-0.5,2-0.3,3.1c0,0.1,0.1,0.3,0.2,0.3"/>
	<path class="st0" d="M56.1,57.8c-0.5,0.1-0.8,0.4-1.2,0.7c-0.3,0.3-0.7,0.5-1,0.8c0,0-0.1,0.1-0.1,0.1c0,0.1,0,0.2,0.1,0.3
		c0.3,0.4,0.2,1,0.2,1.5c0,1.5,1.2,2.9,2.7,3"/>
	<path class="st0" d="M59.8,56.6c-0.1-0.6,0.2-1.2,0.8-1.4c0.1,0,0.3-0.1,0.4,0c0.3,0.1,0.6,0.4,0.8,0.6c0.5,0.6,1,1,1.7,1.3
		c0.4,0.2,0.9,0.3,1.1,0.7c0.1,0.2,0.1,0.4,0.1,0.6c0,1,0,2.1-0.3,3c-0.3,1-1.1,2-2.2,2"/>
	<path class="st0" d="M60.2,55.2c-0.4-0.2-0.8-0.3-1.2-0.5c-0.2-0.1-0.3-0.1-0.5-0.2c-0.2,0-0.4,0-0.5,0h-1.8
		c-0.1,0.4-0.4,0.8-0.6,1.1c-0.3,0.6-0.2,1.5,0.3,2"/>
	<path class="st0" d="M55.3,55.5c-0.9,0.2-1.8,0.6-2.6,1.2c-0.1,0.8-0.1,1.7-0.2,2.5c0,0.2,0,0.4,0,0.7c0.1,0.2,0.2,0.4,0.3,0.6
		c0.4,0.5,0.8,1,1.2,1.5"/>
	<path class="st0" d="M52.5,57.9c-0.5-0.8-1.5-1-2.4-1.1c-0.9,0-1.9,0.1-2.8,0c0.2,0.9,0.5,1.7,0.9,2.4c0.5,1,1.3,1.8,2.2,2.4
		c1,0.5,2.2,0.7,3.2,0.3"/>
	<path class="st0" d="M60.6,64.8c1,0.2,1.7,1.2,2.6,1.7c0.8,0.5,1.9,0.6,2.8,0.6c1,0,2-0.2,2.9-0.2c-0.8-0.9-1.6-1.8-2.4-2.8
		c-0.7-0.8-1.6-1.7-2.6-1.5"/>
	<path class="st0" d="M52.1,62.3c-1.3,0.6-1.9,2.1-3,3.1c0.5,0.2,1.2,0.2,1.6,0.5c0.2,0.1,0.4,0.3,0.5,0.4c0.6,0.4,1.4,0.4,2.1,0.5
		c0.4,0,0.7,0,1.1-0.1c0.2-0.1,0.4-0.2,0.5-0.4c0.3-0.3,0.6-0.6,0.8-0.9c0.2-0.4,0.3-0.8,0.1-1.2"/>
	<path class="st0" d="M47.3,56.9c0.5,0.9,1.4,1.6,2.3,2.2c0.9,0.6,1.8,1.2,2.9,1.5"/>
	<path class="st0" d="M62.5,63.2c0.5,0.2,1,0.4,1.4,0.7c0.3,0.2,0.5,0.4,0.7,0.6c1.1,1.1,2.4,2.1,3.9,2.5"/>
	<path class="st0" d="M49.4,65.3c0.9-0.2,1.8-0.6,2.7-1c0.3-0.1,0.6-0.3,0.8-0.5c0.5-0.4,0.9-1,1.6-1"/>
	<path class="st0" d="M75,81.6c-0.3-0.4-0.8-0.7-1.3-0.9c-0.8-0.4-1.6-0.8-2.3-1.3c-0.1-0.1-0.2-0.1-0.2-0.1c-0.1,0-0.1,0-0.1,0.1
		c-0.7,0.7-1.3,1.5-1.7,2.3c-0.2,0.4-0.4,0.9-0.4,1.4c0,0.5,0.1,1,0.5,1.3"/>
	<path class="st0" d="M73.2,82.5c0.3-0.2,0.6-0.4,1-0.5c0.4-0.1,0.8-0.1,1.1,0.1c0.5,0.3,0.6,0.9,0.7,1.5c0.1,0.6,0.1,1.2,0.5,1.6
		c-0.6,0.2-1.3,0.1-1.9-0.2c-0.2-0.1-0.4-0.2-0.5-0.4c-0.4-0.6-0.2-1.5-0.7-2.1"/>
	<path class="st0" d="M71.9,79.7c0.2-0.4,0.5-0.7,0.9-0.8c1-0.3,2.1,0.4,3.1,0c-0.2,0.5-0.1,0.9-0.1,1.4c0,0.5-0.2,1-0.6,1.2"/>
	<path class="st0" d="M73.2,83c-0.7-0.2-1.5,0-2,0.6c-0.2,0.2-0.3,0.4-0.5,0.6c-0.4,0.4-0.9,0.5-1.3,0.8c-0.7,0.5-1.2,1.3-1.4,2.2
		c1.2,0.2,2.2,1.1,3.4,1.1c0.7,0,1.3-0.3,1.8-0.8c0.5-0.5,0.8-1,1.1-1.6"/>
	<path class="st0" d="M70.4,84.4c-0.2,0.1-0.3,0.1-0.5,0.3c0.6,0.6,1.4,1,2.1,1.4c0.2,0.1,0.4,0.2,0.6,0.2c0.1,0,0.3,0,0.4-0.1
		c0.4-0.1,0.8-0.3,1.3-0.4"/>
	<path class="st0" d="M75.8,79.7c0.2,0.2,0.3,0.3,0.6,0.5c0.5,0.3,1.1,0.3,1.4,0.7c0.3,0.4,0.3,1,0.2,1.5c-0.3,1.2-1.1,2.2-2,3"/>
	<path class="st0" d="M70.2,80c-0.5,0.4-1.2,0.3-1.8,0.5c-0.6,0.2-1,0.8-1.3,1.3c-0.4,0.8-0.7,1.7-0.5,2.5c0.3,0.8,1.1,1.4,1.2,2.3
		c0.2-0.1,0.3-0.2,0.5-0.3"/>
	<path class="st0" d="M70.6,88.2c0.3,0.6,0.8,1,1.4,1.2c0.8,0.3,1.8-0.1,2.6,0.2c0.3-0.9,0.9-1.8,1.6-2.4"/>
	<path class="st0" d="M73,87.5c0.7,0.3,1.5-0.2,2.2-0.3c0.4-0.1,0.9,0,1.3,0.1c0.1,0,0.2,0.1,0.3,0c0.1,0,0.2-0.2,0.3-0.3
		c0.2-0.4,0.5-0.8,0.7-1.2c0.2-0.3,0.4-0.7,0.4-1c0.1-0.7-0.4-1.3-0.5-2"/>
	<path class="st0" d="M73.3,78.8c-0.5-0.4-1.3-0.5-2-0.5c-0.7,0.1-1.4,0.2-2.1,0c-0.1,0-0.2-0.1-0.3,0c-0.1,0-0.1,0.1-0.2,0.2
		c-0.2,0.3-0.4,0.6-0.6,0.8c-0.6,0.8-1.2,1.7-1.2,2.7"/>
	<path class="st0" d="M67.8,87.1c-1,0.7-1.4,1.9-1.8,3c-0.2,0.6-0.4,1.2-0.6,1.8c0.4,0.2,0.7,0.4,1.1,0.5c0.7,0.2,1.4,0,2.1-0.3
		c0.3-0.1,0.7-0.3,1-0.4c0.9-0.6,1.5-1.6,1.9-2.6"/>
	<path class="st0" d="M75.8,79c-0.1-0.4,0.1-0.8,0.3-1.2c0.4-0.9,0.9-1.7,1.5-2.5c0.5-0.6,1.1-1.2,1.4-2l0.6,1.6
		c0.2,0.5,0.3,1,0.3,1.5c0,0.4-0.2,0.7-0.3,1.1c-0.5,1.3-0.6,2.4-1.8,3.1"/>
	<path class="st0" d="M66.5,84.6c-0.4,0.1-0.8,0.2-1.2,0.4c-0.7,0.2-1.5,0.5-2,1c-0.1,0.2-0.2,0.4-0.4,0.5c-0.3,0.5-0.8,1-1.3,1.4
		l1.2,0.7c0.5,0.3,1,0.6,1.6,0.6c0.8,0,1.5-0.4,2.3-0.6"/>
	<path class="st0" d="M78.8,73.4c0,1.1-0.4,2.1-0.7,3.2c-0.4,1.3-0.9,2.6-1.8,3.5"/>
	<path class="st0" d="M65.7,91.8c1.1-0.2,1.9-1.2,2.6-2.2c0.3-0.5,0.7-1,1-1.5"/>
	<path class="st0" d="M61.8,87.8c0.1,0.3,0.5,0.3,0.7,0.2c0.8-0.1,1.5-0.3,2.3-0.6c0.9-0.3,1.8-0.7,2.5-1.4"/>
	<path class="st0" d="M19.5,83.9c-0.2-0.6-0.7-1.1-1.2-1.6c-0.2-0.2-0.3-0.3-0.5-0.4c-0.4-0.3-0.9-0.3-1.4-0.3c-0.1,0-0.2,0-0.2,0
		c-0.1,0-0.1,0.1-0.1,0.1c-0.4,0.4-0.8,0.8-1.1,1.1c-0.2,0.2-0.4,0.4-0.4,0.7c0,0.3,0.1,0.6,0.3,0.8c0.3,0.5,0.7,0.9,1.1,1.2
		c0.2-0.6,0.5-1.3,1.1-1.5c0.3-0.1,0.6-0.1,1-0.1c0.5,0.1,1.1,0.1,1.6,0.2"/>
	<path class="st0" d="M18.2,82c0.6-0.9,1.4-1.7,2.3-2.2c0.4,0.4,0.8,0.9,1.1,1.4c0.2,0.3,0.4,0.6,0.5,1c0.1,0.5,0,1-0.3,1.4
		s-0.6,0.8-0.9,1.2c-0.2,0.2-0.4,0.4-0.7,0.4c-0.2,0-0.4-0.3-0.5-0.5c-0.1-0.2-0.1-0.5-0.3-0.7"/>
	<path class="st0" d="M19,80.9c0-0.5-0.4-0.9-0.8-1.3c-0.5-0.4-0.9-0.7-1.4-1.1c-0.7,0.6-1.4,1.2-2,1.8c-0.5,0.5-1.1,1.2-1,2
		c0.1,0.5,0.5,1,0.8,1.3"/>
	<path class="st0" d="M13.6,82.2c-0.1,0.1-0.2,0.3-0.4,0.4c-0.3,0.4-0.6,0.7-0.7,1.2c-0.2,0.6,0.1,1.4,0.6,1.8"/>
	<path class="st0" d="M14.4,84.3c-0.1,0.5-0.7,0.8-1.1,1.2c-0.5,0.6-0.4,1.5-0.1,2.3c0.4-0.2,1-0.1,1.4,0.1c0.5,0.2,0.9,0.5,1.4,0.6
		c0.7,0.2,1.4,0.1,2-0.3"/>
	<path class="st0" d="M21.7,83.7c-0.6,0.8-1.2,1.6-1.9,2.2c-0.7,0.6-1.6,1.2-2.5,1.4c0.3,0.5,0.6,1,1.1,1.3c0.4,0.3,1,0.4,1.5,0.4
		c0.9,0,1.8-0.1,2.6-0.5c0.1,0,0.1-0.1,0.2-0.1c0.1-0.1,0-0.2,0.1-0.3c0-0.5,0.5-0.9,0.8-1.4c0.3-0.6,0.3-1.4,0-2
		c-0.3-0.6-0.9-1.1-1.6-1.3"/>
	<path class="st0" d="M15.6,85.5c0.3,0.3,0.5,0.6,0.8,0.9c0.1,0.1,0.2,0.3,0.4,0.4C17,87,17.3,87,17.6,87c0.3-0.1,0.5-0.2,0.8-0.3
		c0.4-0.2,0.9-0.6,1-1.1c0-0.3-0.1-0.5-0.3-0.7c-0.1-0.1-0.2-0.2-0.3-0.3c-0.3-0.2-0.6-0.3-0.9-0.2c-0.3,0.1-0.6,0.3-0.7,0.6
		c0,0,0,0.1,0,0.1c0,0,0,0.1,0,0.1c0.2,0.3,0.5,0.5,0.8,0.7"/>
	<path class="st0" d="M13.8,81.5c-0.8-0.4-1.5-1-2.2-1.6c-0.1-0.1-0.2-0.2-0.4-0.3c-0.4-0.3-1-0.2-1.5-0.2c-0.6,0.1-1.2,0.2-1.5,0.7
		"/>
	<path class="st0" d="M8.3,82.4c0.9,0.1,1.8,0.6,2.4,1.2c0.2,0.2,0.4,0.4,0.5,0.7c0.1,0.5-0.3,0.9-0.7,1.2c-0.7,0.4-1.5,0.4-2.3,0.5
		c-0.8,0.1-1.6,0.4-1.9,1.1c0.6-0.1,1,0.5,1.5,0.8c0.5,0.4,1.1,0.6,1.8,0.5c0.4-0.1,0.8-0.3,1.1-0.6c0.8-0.7,1.3-1.7,1.6-2.8"/>
	<path class="st0" d="M12.9,83c-0.6-0.7-1.1-1.3-1.8-1.9c-0.7-0.5-1.5-1-2.3-1.1c-0.5-0.1-1.1,0-1.5-0.3c0.2,0.7,0.2,1.5-0.2,2.2
		c-0.2,0.4-0.4,0.7-0.5,1.1c-0.2,0.5,0,1.1,0.2,1.6c0.3,0.5,0.7,0.9,1.1,1.2c0-0.1,0-0.2-0.1-0.2"/>
	<path class="st0" d="M9.6,85.6c0.2-0.1,0.4-0.3,0.5-0.5c0.1-0.2,0.2-0.5,0.1-0.7c0-0.1-0.1-0.1-0.2-0.2c-0.2-0.1-0.3-0.3-0.5-0.4
		c-0.2-0.2-0.4-0.4-0.6-0.4c-0.3,0-0.6,0.3-0.6,0.7c0,0.3,0.3,0.6,0.6,0.7"/>
	<path class="st0" d="M7.4,80.2c-0.6-0.3-1.4-0.1-2-0.3c0,0.5-0.1,1-0.5,1.4c-0.1,0.1-0.3,0.3-0.3,0.4c0,0.1,0,0.2,0,0.3
		c0,0.5,0,1.1,0.4,1.3"/>
	<path class="st0" d="M9,88.4c-1,0.2-2,0.3-2.8-0.1c-0.5-0.3-0.9-0.7-1.3-1C4.5,87,4,86.8,3.5,86.6c0.2-0.9,0.4-1.8,0.9-2.6
		c0.5-0.8,1.4-1.4,2.3-1.3"/>
	<path class="st0" d="M4.9,83.4c0,0.1,0.1,0.2,0.1,0.4c0,0.1,0,0.2-0.1,0.4c-0.1,0.3-0.1,0.7,0.1,1c0.1,0.3,0.4,0.5,0.6,0.7
		c0.3,0.3,0.6,0.6,0.9,0.7"/>
	<path class="st0" d="M9.1,88.4c0.6,0.4,1.2,0.7,1.9,0.8c0.5,0,1-0.1,1.4-0.4c0.4-0.3,0.8-0.6,1.1-1"/>
	<path class="st0" d="M11.1,79.6c-0.1-0.5-0.1-0.9,0-1.4c0.2-0.5,0.6-0.9,0.9-1.2c0.4-0.4,0.8-0.7,1.2-1c1-0.7,2.3-1,3.1-1.9
		c0.9,1.3,1.2,3.3,0.3,4.6"/>
	<path class="st0" d="M7.1,88.7c-0.5,1.1-1.4,2-2.4,2.6c0.5-0.1,1,0.3,1.5,0.5c0.3,0.1,0.7,0.1,1.1,0.2c0.9,0.1,1.8,0.1,2.8,0
		c0.9-0.1,1.5-0.2,2.2-0.8"/>
	<path class="st0" d="M17.1,88.5c0.5,0.8,0.9,1.8,1,2.8c0.1,0.4,0.1,0.7,0.3,1.1c0.2,0.4,0.5,0.7,0.8,1.1c-0.8,0-1.5,0.1-2.2-0.2
		c-0.4-0.2-0.8-0.4-1.1-0.6c-0.9-0.5-1.9-0.7-2.8-1.2c-0.9-0.5-1.7-1.3-1.8-2.3"/>
	<path class="st0" d="M13.1,88.3c0.4,0.7,0.9,1.4,1.4,1.9c0.7,0.7,1.6,1.3,2.4,1.9c0.3,0.2,0.6,0.4,1,0.7c0.3,0.2,0.5,0.4,0.8,0.5"
		/>
	<path class="st0" d="M9.2,88.9c-0.3,0.3-0.5,0.6-0.8,1c-0.4,0.4-0.9,0.7-1.5,0.9c-0.5,0.2-1.1,0.3-1.7,0.4"/>
	<path class="st0" d="M16.6,74.2c-0.4,1.5-1,2.9-1.9,4.1C14,79.2,13.3,80,13.4,81"/>
	<path class="st0" d="M24.6,34c0.4,0,0.7,0,1.1,0c0.1,0,0.2,0,0.3,0c0.1,0,0.2-0.1,0.3-0.2c0.2-0.1,0.3-0.3,0.4-0.4
		c0.6-0.7,0.6-1.7,0.2-2.5c-0.3-0.8-1-1.5-1.7-2c-0.3,0.1-0.4,0.4-0.3,0.7c0,0.3,0.2,0.5,0.3,0.8c0.1,0.3,0.2,0.5,0.2,0.8
		c0.1,0.4,0.1,0.9,0,1.3c-0.1,0.5-0.5,1-0.9,1.3"/>
	<path class="st0" d="M25.2,29c-0.5-0.5-1-1-1.6-1.4c-0.6-0.4-1.3-0.6-2-0.6c-0.1,0-0.1,0-0.2,0c-0.1,0-0.1,0.1-0.2,0.1
		c-0.3,0.3-0.5,0.5-0.8,0.8c-0.1,0.1-0.2,0.2-0.3,0.3c-0.2,0.3-0.2,1.7-0.3,2"/>
	<path class="st0" d="M19.2,32.9c-0.3,0.3-0.3,0.8-0.1,1.2c0.2,0.4,0.5,0.6,0.8,0.9c0.5,0.4,1,0.8,1.5,1.2c0.5-0.4,1.2-0.6,1.8-0.9
		c0.6-0.3,1.2-0.7,1.5-1.3"/>
	<path class="st0" d="M20.3,30.6C20,30.8,20,30.8,19.6,31c-0.4,0.2-0.8,0.6-0.8,1c0,0.2,0.1,0.4,0.1,0.5c0.2,0.5,0.4,0.9,0.8,1.2
		c0.3,0.2,0.7,0.3,1.2,0.3c0.4,0,0.8-0.1,1.2-0.2c0,0,1.3,0,1.7-0.5"/>
	<path class="st0" d="M24.8,28.8c-0.4,0.1-2.4,0-2.8-0.1c-0.1,0-0.3-0.1-0.4,0c-0.1,0-0.2,0.1-0.2,0.2c-0.2,0.1-0.3,0.3-0.5,0.4
		c-0.3,0.3-0.5,0.5-0.5,0.9c-0.1,0.5,0.7,1.2,1.1,1.5"/>
	<path class="st0" d="M25.4,31.4c-0.4-0.1-1.8-1.5-2.3-1.5c-0.1,0-0.2,0-0.3,0c-0.1,0-0.2,0.1-0.2,0.2c-0.3,0.2-0.5,0.4-0.8,0.6
		c-0.2,0.1-0.4,0.3-0.4,0.5c0,0.2,0,0.4,0.1,0.6c0.1,0.2,0.3,0.3,0.4,0.4c0.2,0.2,0.5,0.4,0.8,0.3c0.1,0,0.3-0.1,0.4-0.2
		c0.1-0.1,0.2-0.3,0.3-0.4c0.1-0.2,0.1-0.3,0-0.5c-0.1-0.1-0.3-0.2-0.4-0.2c-0.2,0-0.3,0-0.5,0.1"/>
	<path class="st0" d="M23.4,32.1c0.1,0.7,0.8,1.2,0.9,1.9"/>
	<path class="st0" d="M20.2,28c-0.2,0-0.4,0-0.6,0c-0.6,0.1-1,0.8-1.6,1c-0.1,0-0.1,0-0.1,0.1c0,0,0,0,0,0.1c-0.2,1,0.1,2.1,0.8,2.8
		"/>
	<path class="st0" d="M20.5,31c0,0-0.8,1.6,0.8,2.8"/>
	<path class="st0" d="M24.4,27.9c-0.2-0.2-0.1-0.5,0-0.7c0.4-0.7,1.1-1.2,1.8-1.6c0.3-0.2,0.6-0.4,0.9-0.6c0.4,0.6,0.7,1.4,0.9,2.1
		c0.1,0.4,0.1,0.8,0,1.1c-0.1,0.2-0.2,0.3-0.3,0.5c-0.4,0.5-0.7,0.9-1.2,1.2"/>
	<path class="st0" d="M27,25.4c0,0.3,0,0.7,0,1c0,0.2,0,0.5-0.1,0.7c-0.1,0.2-0.2,0.3-0.3,0.5c-0.3,0.5-0.7,0.9-1.1,1.3"/>
	<path class="st0" d="M18.6,32.1c-0.7,0.4-1.5,1-1.7,1.8c-0.1,0.2-0.1,0.3-0.2,0.5c-0.1,0.2-0.2,0.4-0.4,0.6c-0.2,0.3-0.5,0.7-0.7,1
		c0.7,0.5,1.6,0.7,2.4,0.6c0.8-0.1,1.6-0.6,2.1-1.4"/>
	<path class="st0" d="M15.9,35.8c0.4-0.2,0.9-0.3,1.3-0.5c0.7-0.3,1.4-0.6,1.8-1.2"/>
	<path class="st0" d="M36.9,6.8c-0.5-0.5-0.8-1.2-1.1-1.9c-0.3-0.7-0.7-1.4-1.4-1.7c-0.7-0.3-1.5-0.1-2,0.4c0.4,0.3,0.7,0.8,0.7,1.3
		c0,0.4,0,0.8,0.1,1.2c0.2,0.7,0.9,1.1,1.7,1.4c0.3,0.1,0.7,0.2,1,0.3c0.3,0.1,0.7,0.1,0.8-0.2"/>
	<path class="st0" d="M32.5,4.2c-0.7,0.2-1.3,0.5-1.7,1c0.3,0.1,0.5,0.4,0.7,0.6c0.5,0.6,1.3,0.9,2.1,0.8"/>
	<path class="st0" d="M36.9,6.6c0.5-0.2,1-0.3,1.5-0.3c0.4,0,0.7,0.1,1.1,0.2c0.4,0,0.7,0,1-0.2c0.1-0.1,0.3-0.3,0.4-0.4
		c0.3-0.4,0.6-0.8,0.8-1.3c0.2-0.5,0.3-1,0.2-1.5c-0.2-0.7-0.9-1.3-1.7-1.3c0.2,0.4,0.3,0.9,0.3,1.3c-0.2,1-1.1,1.6-1.9,2.2
		c-0.5,0.4-1.1,0.7-1.6,1.1"/>
	<path class="st0" d="M40,1.8c-0.2-0.1-0.4-0.4-0.6-0.5c-0.6-0.4-1.3-0.2-2,0c-0.7,0.2-1.5,0.5-1.9,1.1c-0.3,0.3-0.4,0.8-0.4,1.2"/>
	<path class="st0" d="M35.6,4.3c0.1,0.1,0.2,0.3,0.4,0.3c0.1,0.1,0.3,0.1,0.5,0.1c0.3,0,0.7,0,1-0.1c0.4-0.2,0.6-0.5,0.7-0.9
		c0-0.1,0-0.2,0-0.4c0-0.1-0.1-0.1-0.1-0.2c-0.3-0.3-0.8-0.4-1.2-0.3"/>
	<path class="st0" d="M37.3,1.2c0.7,0.5,1.2,1.1,1.5,1.9c0.1,0.2,0.2,0.5,0.3,0.6c0.1,0.2,0.3,0.4,0.6,0.4"/>
	<path class="st0" d="M38.2,0.9c-0.5-0.2-1-0.3-1.6-0.3c-0.4,0-0.7,0.1-1-0.1c-0.1,0-0.2-0.1-0.3-0.1c-0.1,0-0.1,0-0.2,0.1
		c-0.5,0.3-1,0.6-1.3,1c-0.4,0.4-0.6,1-0.4,1.6"/>
	<path class="st0" d="M35.8,7.7c0.3,0.6,1.1,0.9,1.8,1c0.7,0.1,1.5,0,2.2,0.2c0.3-0.4,0.6-0.8,0.9-1.3c0.2-0.5,0.4-1,0.1-1.5"/>
	<path class="st0" d="M41.9,3c0.2,0.3,0.3,0.6,0.4,0.9c0.2,0.4,0.5,0.8,0.9,1.1c-0.3,0.4-0.6,0.7-0.8,1.1c-0.3,0.4-0.7,0.8-1.2,0.8"
		/>
	<path class="st0" d="M32.8,6.6c-0.8,0-1.5,0.3-2.2,0.7c-0.7,0.4-1.3,0.8-2,1.1c1.1,1,2.8,1.3,4.3,1.3c0.6,0,1.2,0,1.8-0.2
		c0.6-0.2,1.2-0.5,1.5-1"/>
	<path class="st0" d="M35.6,7.8c-2.1,0.3-4.1,0.6-6.2,0.7"/>
	<path class="st0" d="M41.4,2.4c0.9-0.9,2.3-1.1,3.2-2c-0.2,0.8-0.5,1.6-0.4,2.4c0,0.2,0.1,0.4,0.1,0.7c0,0.7-0.6,1.2-1,1.7"/>
	<path class="st0" d="M44.3,1c-0.2,0.3-0.5,0.5-0.7,0.8c-0.1,0.1-0.1,0.3-0.2,0.5c-0.2,0.6-0.6,1.2-1,1.6"/>
</g>
</svg>
