<?xml version="1.0" encoding="utf-8"?>
<!-- Generator: Adobe Illustrator 22.0.1, SVG Export Plug-In . SVG Version: 6.00 Build 0)  -->
<svg version="1.1" id="Слой_1" xmlns="http://www.w3.org/2000/svg" xmlns:xlink="http://www.w3.org/1999/xlink" x="0px" y="0px"
	 viewBox="0 0 197.7 12.5" style="enable-background:new 0 0 197.7 12.5;" xml:space="preserve">
<style type="text/css">
	.st0{clip-path:url(#SVGID_2_);fill:#1F1B1D;}
</style>
<g>
	<defs>
		<rect id="SVGID_1_" y="0" width="197.7" height="12.5"/>
	</defs>
	<clipPath id="SVGID_2_">
		<use xlink:href="#SVGID_1_"  style="overflow:visible;"/>
	</clipPath>
	<path class="st0" d="M196.2,2.9c-0.1,0.2,0,0-0.2,0.3c-0.2,0.4-0.5,0.8-0.8,1.2c-1,1.3-2.3,2.4-3.7,3.3c-6.5,4-15,3.6-22.2,2.4
		c-13.7-2.2-26.3-8.8-40.2-10c-7.9-0.7-16.3,0.1-23.3,4.2c-2.9,1.6-6,4-7.6,6.9h1.3c-1.3-2.4-3.7-4.4-5.9-5.9
		C87.4,1.2,79.7-0.1,72.3,0c-6,0.1-12,1.2-17.8,2.8c-7.4,2-14.5,5-22,6.6c-7.9,1.7-17.3,2.9-24.9-0.8c-1.9-0.9-3.7-2.2-5-3.9
		C2.3,4.3,2,3.9,1.7,3.4C1.5,3,1.5,3,1.5,2.9C1.2,2-0.3,2.4,0,3.3c0.8,2.2,2.7,4,4.5,5.3c5.6,3.9,13.2,4.2,19.7,3.6
		c6.2-0.6,12.3-2.1,18.3-3.9c7.2-2.3,14.1-4.9,21.6-6C72.8,0.9,82.3,1,90.2,5.2c3,1.6,6.3,3.9,8,6.9c0.3,0.5,1,0.5,1.3,0
		c1.3-2.4,3.8-4.4,6.2-5.9c6.9-4.4,15.5-5.2,23.5-4.5c14.1,1.2,26.8,8,40.7,10.1c7.2,1,15.3,1.3,21.9-2.3c2.4-1.3,5-3.5,5.9-6.1
		C197.9,2.4,196.5,2,196.2,2.9"/>
</g>
</svg>
