<?xml version="1.0" encoding="utf-8"?>
<!-- Generator: Adobe Illustrator 22.0.1, SVG Export Plug-In . SVG Version: 6.00 Build 0)  -->
<svg version="1.1" id="Слой_1" xmlns="http://www.w3.org/2000/svg" xmlns:xlink="http://www.w3.org/1999/xlink" x="0px" y="0px"
	 viewBox="0 0 121.8 34.6" style="enable-background:new 0 0 121.8 34.6;" xml:space="preserve">
<style type="text/css">
	.st0{clip-path:url(#SVGID_2_);fill:#1C1C1C;}
</style>
<g>
	<defs>
		<rect id="SVGID_1_" y="0" width="121.8" height="34.6"/>
	</defs>
	<clipPath id="SVGID_2_">
		<use xlink:href="#SVGID_1_"  style="overflow:visible;"/>
	</clipPath>
	<path class="st0" d="M101.8,5.1c0,0,4.8,3.8-19.9,3.1C57.2,7.5,25.5,7.5,25.5,7.5s-8.2-0.2-7.7,11.9c0.5,12.1,0.4,7.5,0.4,7.5
		s1.5-2.7,8.2-2.4c6.8,0.4,69.5,1.1,69.5,1.1s5.5,1.3,6.6-6.6C102.6,19,103.8,9.1,101.8,5.1"/>
	<path class="st0" d="M17.9,27.8c0,0,0.5,1.8,5.2,1.8s12-0.4,12.2,3.5c0.2,3.9,2.2-6,0.7-8.7"/>
	<path class="st0" d="M35.2,34.3c0,0-2.7,1-9-0.5C19.9,32.4,7.7,31,0.5,33L5.4,25L0,13.8c0,0,11.8-2.1,18.3-0.2"/>
	<path class="st0" d="M102.2,5.8c0,0-3.3-2.9-7.9-2.4C89.8,4,87.7,4.7,83,2.4c0,0-1.5,3.5,0.2,5.7"/>
	<path class="st0" d="M83,2.4c0,0,2.9-3.1,8.6-2.2c5.7,0.9,21.4,5.1,28,3.1l-4.6,8.4l6.8,10.2c0,0-8,2-20.1-0.2"/>
</g>
</svg>
